<svg width="21" height="20" viewBox="0 0 21 20" fill="none" xmlns="http://www.w3.org/2000/svg">
<path d="M12.9684 9.04834L9.11004 12.9067L7.29004 11.0871" stroke="#545454" stroke-width="0.833333" stroke-linecap="round" stroke-linejoin="round"/>
<path d="M10.19 17.6674C13.9216 17.6674 16.9467 14.6423 16.9467 10.9107C16.9467 7.17912 13.9216 4.15405 10.19 4.15405C6.45841 4.15405 3.43335 7.17912 3.43335 10.9107C3.43335 14.6423 6.45841 17.6674 10.19 17.6674Z" stroke="#545454" stroke-width="0.833333" stroke-linecap="round" stroke-linejoin="round"/>
<path d="M10.243 16.1017C13.1195 16.1017 15.4513 13.7699 15.4513 10.8934C15.4513 8.01691 13.1195 5.68506 10.243 5.68506C7.36652 5.68506 5.03467 8.01691 5.03467 10.8934C5.03467 13.7699 7.36652 16.1017 10.243 16.1017Z" stroke="#545454" stroke-width="0.833333" stroke-linecap="round" stroke-linejoin="round"/>
<path d="M16.6764 6.45335L17.7302 5.26585L14.2556 2.33252L13.2331 3.54669L16.6764 6.45335ZM3.65727 6.45335L2.60352 5.26585L6.07768 2.33252L7.1006 3.54669L3.65727 6.45335Z" stroke="#545454" stroke-width="0.833333" stroke-linecap="round" stroke-linejoin="round"/>
</svg>
