<svg width="21" height="20" viewBox="0 0 21 20" fill="none" xmlns="http://www.w3.org/2000/svg">
<path d="M13.8689 11.7858C13.7269 11.7858 13.5906 11.8423 13.4901 11.9427C13.3897 12.0432 13.3332 12.1795 13.3332 12.3215C13.3332 12.4636 13.3897 12.5999 13.4901 12.7003C13.5906 12.8008 13.7269 12.8572 13.8689 12.8572H16.3689C16.511 12.8572 16.6473 12.8008 16.7477 12.7003C16.8482 12.5999 16.9046 12.4636 16.9046 12.3215C16.9046 12.1795 16.8482 12.0432 16.7477 11.9427C16.6473 11.8423 16.511 11.7858 16.3689 11.7858H13.8689ZM2.26465 6.2501C2.26465 5.5397 2.54685 4.8584 3.04918 4.35607C3.55151 3.85374 4.23282 3.57153 4.94322 3.57153H16.7261C17.4365 3.57153 18.1178 3.85374 18.6201 4.35607C19.1224 4.8584 19.4046 5.5397 19.4046 6.2501V13.7501C19.4046 14.4605 19.1224 15.1418 18.6201 15.6441C18.1178 16.1465 17.4365 16.4287 16.7261 16.4287H4.94393C4.23353 16.4287 3.55223 16.1465 3.0499 15.6441C2.54757 15.1418 2.26536 14.4605 2.26536 13.7501V6.2501H2.26465ZM4.94322 4.64296C4.51698 4.64296 4.1082 4.81229 3.8068 5.11368C3.5054 5.41508 3.33608 5.82386 3.33608 6.2501V6.78582H18.3332V6.2501C18.3332 5.82386 18.1639 5.41508 17.8625 5.11368C17.5611 4.81229 17.1523 4.64296 16.7261 4.64296H4.94322ZM3.33608 13.7501C3.33608 14.1763 3.5054 14.5851 3.8068 14.8865C4.1082 15.1879 4.51698 15.3572 4.94322 15.3572H16.7261C17.1523 15.3572 17.5611 15.1879 17.8625 14.8865C18.1639 14.5851 18.3332 14.1763 18.3332 13.7501V7.85725H3.33679V13.7501H3.33608Z" fill="#2E2E2E"/>
</svg>
