<svg width="20" height="20" viewBox="0 0 20 20" fill="none" xmlns="http://www.w3.org/2000/svg">
<path d="M16.6925 17.3251C17.0759 17.7084 17.6675 17.1167 17.2842 16.7417L14.1592 13.6084C15.2554 12.3955 15.8613 10.8182 15.8592 9.18338C15.8592 5.52505 12.8842 2.55005 9.22586 2.55005C5.56753 2.55005 2.59253 5.52505 2.59253 9.18338C2.59253 12.8417 5.56753 15.8167 9.22586 15.8167C10.8759 15.8167 12.4009 15.2084 13.5675 14.2001L16.6925 17.3251ZM3.42503 9.18338C3.42503 5.98338 6.03336 3.38338 9.22503 3.38338C12.425 3.38338 15.025 5.98338 15.025 9.18338C15.025 12.3834 12.425 14.9834 9.22503 14.9834C6.03336 14.9834 3.42503 12.3834 3.42503 9.18338Z" fill="#0B6186"/>
</svg>
