<svg width="100" height="100" viewBox="0 0 100 100" fill="none" xmlns="http://www.w3.org/2000/svg">
<g clip-path="url(#clip0_716_265)">
<path d="M50.0001 5.55554C41.2098 5.55554 32.617 8.16216 25.3081 13.0458C17.9993 17.9294 12.3027 24.8707 8.93882 32.9918C5.57492 41.113 4.69477 50.0493 6.40967 58.6707C8.12457 67.292 12.3575 75.2113 18.5732 81.427C24.7888 87.6426 32.7081 91.8755 41.3294 93.5904C49.9508 95.3053 58.8871 94.4252 67.0083 91.0613C75.1294 87.6974 82.0707 82.0008 86.9543 74.692C91.838 67.3831 94.4446 58.7903 94.4446 50C94.4446 38.2126 89.762 26.908 81.4271 18.573C73.0921 10.2381 61.7875 5.55554 50.0001 5.55554ZM79.0279 35.0833L42.5279 71.5555L20.9724 50C20.2356 49.2633 19.8218 48.2641 19.8218 47.2222C19.8218 46.1803 20.2356 45.1811 20.9724 44.4444C21.7091 43.7077 22.7083 43.2938 23.7501 43.2938C24.792 43.2938 25.7912 43.7077 26.5279 44.4444L42.5835 60.5L73.5279 29.5833C73.8927 29.2185 74.3258 28.9292 74.8024 28.7318C75.279 28.5343 75.7898 28.4327 76.3057 28.4327C76.8216 28.4327 77.3324 28.5343 77.809 28.7318C78.2856 28.9292 78.7187 29.2185 79.0835 29.5833C79.4482 29.9481 79.7376 30.3812 79.935 30.8578C80.1324 31.3344 80.2341 31.8452 80.2341 32.3611C80.2341 32.877 80.1324 33.3878 79.935 33.8644C79.7376 34.341 79.4482 34.7741 79.0835 35.1389L79.0279 35.0833Z" fill="#0B6186"/>
</g>
<defs>
<clipPath id="clip0_716_265">
<rect width="100" height="100" fill="white"/>
</clipPath>
</defs>
</svg>
