<svg width="24" height="24" viewBox="0 0 24 24" fill="none" xmlns="http://www.w3.org/2000/svg">
<path d="M15.6428 14.1428C15.4723 14.1428 15.3088 14.2105 15.1882 14.3311C15.0677 14.4516 14.9999 14.6151 14.9999 14.7856C14.9999 14.9561 15.0677 15.1197 15.1882 15.2402C15.3088 15.3608 15.4723 15.4285 15.6428 15.4285H18.6428C18.8133 15.4285 18.9768 15.3608 19.0974 15.2402C19.2179 15.1197 19.2857 14.9561 19.2857 14.7856C19.2857 14.6151 19.2179 14.4516 19.0974 14.3311C18.9768 14.2105 18.8133 14.1428 18.6428 14.1428H15.6428ZM1.71765 7.49993C1.71765 6.64745 2.0563 5.82988 2.65909 5.22709C3.26189 4.62429 4.07946 4.28564 4.93194 4.28564H19.0714C19.9238 4.28564 20.7414 4.62429 21.3442 5.22709C21.947 5.82988 22.2857 6.64745 22.2857 7.49993V16.4999C22.2857 17.3524 21.947 18.17 21.3442 18.7728C20.7414 19.3756 19.9238 19.7142 19.0714 19.7142H4.93279C4.08031 19.7142 3.26275 19.3756 2.65995 18.7728C2.05716 18.17 1.71851 17.3524 1.71851 16.4999V7.49993H1.71765ZM4.93194 5.57136C4.42045 5.57136 3.92991 5.77455 3.56823 6.13622C3.20655 6.4979 3.00337 6.98844 3.00337 7.49993V8.14279H20.9999V7.49993C20.9999 6.98844 20.7967 6.4979 20.4351 6.13622C20.0734 5.77455 19.5829 5.57136 19.0714 5.57136H4.93194ZM3.00337 16.4999C3.00337 17.0114 3.20655 17.502 3.56823 17.8636C3.92991 18.2253 4.42045 18.4285 4.93194 18.4285H19.0714C19.5829 18.4285 20.0734 18.2253 20.4351 17.8636C20.7967 17.502 20.9999 17.0114 20.9999 16.4999V9.4285H3.00422V16.4999H3.00337Z" fill="#0B6186" stroke="#0B6186" stroke-width="0.5"/>
</svg>
