<svg width="20" height="21" viewBox="0 0 20 21" fill="none" xmlns="http://www.w3.org/2000/svg">
<g clip-path="url(#clip0_779_931)">
<path d="M10 19.5445C10.35 19.5364 10.6858 19.4049 10.9481 19.1731C11.2104 18.9413 11.3823 18.6241 11.4333 18.2778H8.51111C8.56359 18.6336 8.74351 18.9581 9.01739 19.1911C9.29126 19.4241 9.64046 19.5497 10 19.5445Z" fill="#2E2E2E"/>
<circle cx="15.7499" cy="3" r="2.5" fill="#DF263C"/>
<path d="M18.061 15.975C17.5253 15.4974 17.0563 14.9499 16.6666 14.3472C16.2411 13.5153 15.9861 12.6068 15.9166 11.675V8.93056C15.9202 7.46701 15.3893 6.05249 14.4236 4.95276C13.4579 3.85304 12.1239 3.14381 10.6721 2.95833V2.24167C10.6721 2.04496 10.594 1.85632 10.4549 1.71723C10.3158 1.57814 10.1271 1.5 9.93045 1.5C9.73374 1.5 9.5451 1.57814 9.40601 1.71723C9.26692 1.85632 9.18878 2.04496 9.18878 2.24167V2.96944C7.75003 3.16829 6.4321 3.88181 5.47907 4.97784C4.52605 6.07387 4.00252 7.47814 4.00545 8.93056V11.675C3.93587 12.6068 3.68088 13.5153 3.25545 14.3472C2.8726 14.9485 2.41111 15.496 1.88322 15.975C1.82396 16.0271 1.77647 16.0911 1.7439 16.163C1.71133 16.2348 1.69444 16.3128 1.69434 16.3917V17.1472C1.69434 17.2946 1.75287 17.4359 1.85705 17.5401C1.96124 17.6442 2.10255 17.7028 2.24989 17.7028H17.6943C17.8417 17.7028 17.983 17.6442 18.0872 17.5401C18.1914 17.4359 18.2499 17.2946 18.2499 17.1472V16.3917C18.2498 16.3128 18.2329 16.2348 18.2003 16.163C18.1678 16.0911 18.1203 16.0271 18.061 15.975ZM2.84989 16.5917C3.36679 16.0923 3.82189 15.5328 4.20545 14.925C4.74134 13.9203 5.05402 12.8117 5.12211 11.675V8.93056C5.10008 8.27946 5.20929 7.6306 5.44325 7.02259C5.67721 6.41459 6.03112 5.85988 6.48392 5.3915C6.93672 4.92312 7.47914 4.55065 8.07888 4.29626C8.67863 4.04188 9.32343 3.91078 9.97489 3.91078C10.6264 3.91078 11.2712 4.04188 11.8709 4.29626C12.4706 4.55065 13.0131 4.92312 13.4659 5.3915C13.9187 5.85988 14.2726 6.41459 14.5065 7.02259C14.7405 7.6306 14.8497 8.27946 14.8277 8.93056V11.675C14.8958 12.8117 15.2084 13.9203 15.7443 14.925C16.1279 15.5328 16.583 16.0923 17.0999 16.5917H2.84989Z" fill="#2E2E2E"/>
</g>
<defs>
<clipPath id="clip0_779_931">
<rect width="20" height="20" fill="white" transform="translate(0 0.5)"/>
</clipPath>
</defs>
</svg>
