<svg width="20" height="20" viewBox="0 0 20 20" fill="none" xmlns="http://www.w3.org/2000/svg">
<path d="M15.4114 7.28637C15.4117 6.35059 15.1693 5.43073 14.708 4.6166C14.2466 3.80247 13.582 3.1219 12.779 2.64134C11.9761 2.16078 11.0622 1.89666 10.1267 1.87477C9.19119 1.85288 8.26598 2.07397 7.44143 2.51644C6.61688 2.95892 5.92117 3.60766 5.42222 4.39932C4.92328 5.19098 4.63816 6.0985 4.59471 7.03326C4.55125 7.96803 4.75095 8.89808 5.1743 9.73262C5.59764 10.5671 6.23017 11.2776 7.01012 11.7947V16.6355C7.01012 16.7892 7.07118 16.9367 7.17987 17.0454C7.28857 17.1541 7.43599 17.2151 7.5897 17.2151H12.4105C12.5642 17.2151 12.7117 17.1541 12.8204 17.0454C12.9291 16.9367 12.9901 16.7892 12.9901 16.6355V11.7951C13.7348 11.3022 14.3458 10.6323 14.7683 9.84552C15.1908 9.05871 15.4118 8.17945 15.4114 7.28637Z" stroke="#545454" stroke-width="0.833333" stroke-linecap="round" stroke-linejoin="round"/>
<path d="M7.01001 14.3605C7.01001 14.5142 7.07107 14.6617 7.17977 14.7704C7.28846 14.8791 7.43588 14.9401 7.58959 14.9401H12.4104C12.5641 14.9401 12.7116 14.8791 12.8203 14.7704C12.9289 14.6617 12.99 14.5142 12.99 14.3605M7.49751 9.87012H12.5025M10 14.9401V9.87012M8.44001 17.2151V17.5455C8.44001 17.6992 8.50107 17.8467 8.60977 17.9554C8.71846 18.0641 8.86588 18.1251 9.01959 18.1251H10.9804C11.1341 18.1251 11.2816 18.0641 11.3903 17.9554C11.4989 17.8467 11.56 17.6992 11.56 17.5455V17.2151" stroke="#545454" stroke-width="0.833333" stroke-linecap="round" stroke-linejoin="round"/>
</svg>
