<svg width="1080" height="1080" viewBox="0 0 1080 1080" fill="none" xmlns="http://www.w3.org/2000/svg">
<rect width="1080" height="1080" fill="#0B6186"/>
<path d="M820.188 521.108C814.149 521.308 808.995 521.808 804.724 522.608C800.502 523.357 797.042 524.357 794.342 525.607C791.691 526.857 789.752 528.331 788.524 530.031C787.346 531.731 786.757 533.63 786.757 535.73C786.757 537.729 787.076 539.454 787.714 540.903C788.353 542.353 789.212 543.553 790.292 544.503C791.421 545.402 792.722 546.077 794.194 546.527C795.716 546.927 797.336 547.127 799.054 547.127C801.361 547.127 803.472 546.902 805.387 546.452C807.301 545.952 809.093 545.253 810.762 544.353C812.48 543.453 814.1 542.378 815.622 541.128C817.193 539.879 818.715 538.454 820.188 536.854V521.108ZM777.847 490.065C781.971 486.016 786.414 482.991 791.175 480.992C795.937 478.992 801.214 477.993 807.007 477.993C811.179 477.993 814.886 478.692 818.126 480.092C821.366 481.492 824.09 483.441 826.299 485.941C828.508 488.44 830.177 491.465 831.306 495.014C832.435 498.563 833 502.462 833 506.711V555.3H827.183C825.906 555.3 824.925 555.1 824.237 554.7C823.55 554.25 823.01 553.401 822.617 552.151L821.145 544.953C819.181 546.802 817.267 548.452 815.401 549.901C813.536 551.301 811.572 552.501 809.51 553.501C807.449 554.45 805.24 555.175 802.883 555.675C800.576 556.225 797.999 556.5 795.152 556.5C792.255 556.5 789.531 556.1 786.978 555.3C784.425 554.45 782.192 553.201 780.277 551.551C778.412 549.901 776.915 547.827 775.786 545.327C774.706 542.778 774.166 539.779 774.166 536.329C774.166 533.33 774.976 530.456 776.596 527.706C778.216 524.907 780.842 522.433 784.474 520.283C788.107 518.134 792.844 516.384 798.686 515.034C804.528 513.635 811.695 512.835 820.188 512.635V506.711C820.188 500.812 818.936 496.363 816.432 493.364C813.928 490.315 810.271 488.79 805.46 488.79C802.221 488.79 799.496 489.215 797.287 490.065C795.127 490.865 793.237 491.789 791.617 492.839C790.046 493.839 788.672 494.764 787.494 495.614C786.364 496.413 785.235 496.813 784.106 496.813C783.223 496.813 782.462 496.588 781.824 496.138C781.185 495.639 780.645 495.039 780.204 494.339L777.847 490.065Z" fill="white"/>
<path d="M749.881 556.5C743.99 556.5 739.449 554.825 736.259 551.476C733.117 548.127 731.546 543.303 731.546 537.004V490.515H722.562C721.777 490.515 721.114 490.29 720.574 489.84C720.034 489.34 719.764 488.59 719.764 487.59V482.267L731.988 480.692L735.007 457.222C735.154 456.472 735.473 455.872 735.964 455.422C736.504 454.923 737.191 454.673 738.026 454.673H744.653V480.842H766.228V490.515H744.653V536.104C744.653 539.304 745.414 541.678 746.936 543.228C748.457 544.778 750.421 545.552 752.826 545.552C754.201 545.552 755.379 545.377 756.361 545.027C757.392 544.628 758.275 544.203 759.012 543.753C759.748 543.303 760.362 542.903 760.853 542.553C761.393 542.153 761.859 541.953 762.252 541.953C762.939 541.953 763.553 542.378 764.093 543.228L767.922 549.601C765.663 551.751 762.939 553.451 759.748 554.7C756.557 555.9 753.268 556.5 749.881 556.5Z" fill="white"/>
<path d="M706.714 491.864C706.124 492.964 705.216 493.514 703.989 493.514C703.253 493.514 702.418 493.239 701.485 492.689C700.553 492.139 699.399 491.539 698.025 490.89C696.699 490.19 695.104 489.565 693.238 489.015C691.373 488.415 689.164 488.115 686.611 488.115C684.402 488.115 682.414 488.415 680.647 489.015C678.88 489.565 677.358 490.34 676.081 491.339C674.854 492.339 673.897 493.514 673.21 494.864C672.571 496.163 672.252 497.588 672.252 499.138C672.252 501.087 672.792 502.712 673.872 504.012C675.001 505.311 676.474 506.436 678.29 507.386C680.107 508.336 682.169 509.185 684.476 509.935C686.783 510.635 689.139 511.41 691.545 512.26C693.999 513.06 696.38 513.959 698.687 514.959C700.995 515.959 703.056 517.209 704.873 518.708C706.689 520.208 708.137 522.058 709.217 524.257C710.346 526.407 710.911 529.006 710.911 532.055C710.911 535.555 710.297 538.804 709.07 541.803C707.843 544.753 706.026 547.327 703.621 549.526C701.216 551.676 698.27 553.376 694.785 554.625C691.299 555.875 687.274 556.5 682.709 556.5C677.505 556.5 672.792 555.65 668.571 553.95C664.349 552.201 660.765 549.976 657.82 547.277L660.913 542.178C661.305 541.528 661.772 541.028 662.312 540.678C662.852 540.329 663.539 540.154 664.373 540.154C665.257 540.154 666.19 540.503 667.172 541.203C668.153 541.903 669.332 542.678 670.706 543.528C672.13 544.378 673.848 545.152 675.861 545.852C677.873 546.552 680.377 546.902 683.371 546.902C685.924 546.902 688.158 546.577 690.072 545.927C691.987 545.227 693.582 544.303 694.858 543.153C696.135 542.003 697.067 540.678 697.656 539.179C698.295 537.679 698.614 536.079 698.614 534.38C698.614 532.28 698.049 530.556 696.92 529.206C695.84 527.806 694.392 526.632 692.576 525.682C690.759 524.682 688.673 523.832 686.317 523.132C684.009 522.383 681.629 521.608 679.174 520.808C676.769 520.008 674.388 519.108 672.031 518.108C669.724 517.059 667.663 515.759 665.846 514.209C664.03 512.66 662.557 510.76 661.428 508.511C660.348 506.211 659.808 503.437 659.808 500.187C659.808 497.288 660.397 494.514 661.575 491.864C662.753 489.165 664.472 486.815 666.73 484.816C668.988 482.766 671.762 481.142 675.051 479.942C678.34 478.742 682.095 478.142 686.317 478.142C691.226 478.142 695.619 478.942 699.497 480.542C703.425 482.092 706.812 484.241 709.659 486.99L706.714 491.864Z" fill="white"/>
<path d="M641.733 479.342V555.3H628.626V479.342H641.733ZM644.531 455.497C644.531 456.797 644.261 458.022 643.721 459.172C643.23 460.271 642.543 461.271 641.659 462.171C640.825 463.021 639.819 463.696 638.64 464.195C637.511 464.695 636.309 464.945 635.032 464.945C633.756 464.945 632.553 464.695 631.424 464.195C630.344 463.696 629.387 463.021 628.552 462.171C627.718 461.271 627.055 460.271 626.564 459.172C626.073 458.022 625.828 456.797 625.828 455.497C625.828 454.198 626.073 452.973 626.564 451.823C627.055 450.624 627.718 449.599 628.552 448.749C629.387 447.849 630.344 447.149 631.424 446.649C632.553 446.15 633.756 445.9 635.032 445.9C636.309 445.9 637.511 446.15 638.64 446.649C639.819 447.149 640.825 447.849 641.659 448.749C642.543 449.599 643.23 450.624 643.721 451.823C644.261 452.973 644.531 454.198 644.531 455.497Z" fill="white"/>
<path d="M617.101 447.849L574.098 555.3H561.286L518.283 447.849H529.696C530.973 447.849 532.004 448.174 532.789 448.824C533.574 449.474 534.163 450.299 534.556 451.298L564.305 527.107C564.943 528.806 565.557 530.656 566.146 532.655C566.784 534.655 567.348 536.754 567.839 538.954C568.33 536.754 568.846 534.655 569.385 532.655C569.926 530.656 570.515 528.806 571.153 527.107L600.828 451.298C601.122 450.449 601.687 449.674 602.521 448.974C603.405 448.224 604.46 447.849 605.688 447.849H617.101Z" fill="white"/>
<path d="M496.792 556.5C493.355 556.5 490.312 556 487.661 555C485.01 553.95 482.777 552.476 480.96 550.576C479.144 548.677 477.769 546.377 476.837 543.678C475.904 540.978 475.438 537.929 475.438 534.53V492.839H468.295C467.215 492.839 466.282 492.489 465.497 491.789C464.76 491.089 464.392 490.04 464.392 488.64V480.542L476.542 478.292L480.666 458.272C481.206 456.022 482.703 454.897 485.157 454.897H495.761V478.442H515.348V492.839H495.761V533.18C495.761 535.33 496.252 537.029 497.234 538.279C498.264 539.529 499.713 540.153 501.578 540.153C502.56 540.153 503.394 540.053 504.082 539.854C504.769 539.604 505.358 539.354 505.849 539.104C506.34 538.804 506.782 538.554 507.174 538.354C507.616 538.104 508.058 537.979 508.5 537.979C509.089 537.979 509.58 538.129 509.972 538.429C510.365 538.679 510.758 539.129 511.151 539.779L517.262 549.676C514.464 551.926 511.298 553.625 507.763 554.775C504.229 555.925 500.572 556.5 496.792 556.5Z" fill="white"/>
<path d="M453.655 443.5V555.3H433.332V443.5H453.655Z" fill="white"/>
<path d="M353.034 446.499L310.032 555.3H290.003L247 446.499H264.82C266.734 446.499 268.281 446.974 269.459 447.924C270.686 448.824 271.594 449.999 272.183 451.448L295.305 514.134C296.188 516.484 297.047 519.058 297.882 521.858C298.765 524.607 299.575 527.506 300.312 530.556C300.95 527.506 301.637 524.607 302.374 521.858C303.159 519.058 303.993 516.484 304.877 514.134L327.851 451.448C328.342 450.199 329.201 449.074 330.428 448.074C331.705 447.024 333.276 446.499 335.141 446.499H353.034Z" fill="white"/>
<path d="M393.967 478.242C390.39 477.276 386.544 476.793 382.429 476.793C376.685 476.793 371.457 477.717 366.744 479.567C362.081 481.417 358.08 484.066 354.742 487.515C351.404 490.914 348.802 495.064 346.936 499.963C345.12 504.861 344.212 510.385 344.212 516.534C344.212 522.682 345.12 528.231 346.936 533.18C348.802 538.079 351.404 542.253 354.742 545.702C357.57 548.624 360.873 550.972 364.652 552.746L371.808 522.513C372.096 521.3 371.788 520.725 370.81 520.485L359.635 517.742C358.406 517.44 358.143 515.863 359.165 514.794L393.967 478.242Z" fill="white"/>
<path d="M372.314 555.353L403.516 524.535C404.566 523.473 404.368 521.587 403.139 521.286L393.36 518.885C391.963 518.543 390.965 516.514 391.364 514.829L399.552 480.238C403.543 482.038 407.015 484.464 409.968 487.515C413.306 490.914 415.883 495.064 417.7 499.963C419.516 504.861 420.424 510.385 420.424 516.534C420.424 522.682 419.516 528.231 417.7 533.18C415.883 538.079 413.306 542.253 409.968 545.702C406.63 549.151 402.629 551.801 397.965 553.651C393.302 555.5 388.123 556.425 382.429 556.425C378.858 556.425 375.487 556.068 372.314 555.353Z" fill="white"/>
</svg>
