<svg width="90" height="90" viewBox="0 0 90 90" fill="none" xmlns="http://www.w3.org/2000/svg">
<path d="M45.0001 0.555664C36.2098 0.555664 27.617 3.16228 20.3081 8.0459C12.9993 12.9295 7.30271 19.8708 3.93882 27.992C0.574921 36.1131 -0.305227 45.0494 1.40967 53.6708C3.12457 62.2922 7.35749 70.2114 13.5732 76.4271C19.7888 82.6427 27.7081 86.8757 36.3294 88.5906C44.9508 90.3055 53.8871 89.4253 62.0083 86.0614C70.1294 82.6975 77.0707 77.001 81.9543 69.6921C86.838 62.3833 89.4446 53.7904 89.4446 45.0001C89.4446 33.2127 84.762 21.9081 76.4271 13.5731C68.0921 5.23819 56.7875 0.555664 45.0001 0.555664ZM74.0279 30.0834L37.5279 66.5557L15.9724 45.0001C15.2356 44.2634 14.8218 43.2642 14.8218 42.2223C14.8218 41.1805 15.2356 40.1813 15.9724 39.4445C16.7091 38.7078 17.7083 38.294 18.7501 38.294C19.792 38.294 20.7912 38.7078 21.5279 39.4445L37.5835 55.5001L68.5279 24.5834C68.8927 24.2187 69.3258 23.9293 69.8024 23.7319C70.279 23.5345 70.7898 23.4328 71.3057 23.4328C71.8216 23.4328 72.3324 23.5345 72.809 23.7319C73.2856 23.9293 73.7187 24.2187 74.0835 24.5834C74.4482 24.9482 74.7376 25.3813 74.935 25.8579C75.1324 26.3345 75.2341 26.8453 75.2341 27.3612C75.2341 27.8771 75.1324 28.3879 74.935 28.8645C74.7376 29.3412 74.4482 29.7742 74.0835 30.139L74.0279 30.0834Z" fill="#0B6186"/>
</svg>
