<svg width="24" height="24" viewBox="0 0 24 24" fill="none" xmlns="http://www.w3.org/2000/svg">
<path d="M7.10495 19.5495C8.60578 19.5495 9.82245 18.3328 9.82245 16.832C9.82245 15.3312 8.60578 14.1145 7.10495 14.1145C5.60412 14.1145 4.38745 15.3312 4.38745 16.832C4.38745 18.3328 5.60412 19.5495 7.10495 19.5495Z" stroke="#0B6186" stroke-width="1.5" stroke-linecap="round" stroke-linejoin="round"/>
<path d="M7.10501 18.0674C7.78735 18.0674 8.34051 17.5143 8.34051 16.8319C8.34051 16.1496 7.78735 15.5964 7.10501 15.5964C6.42266 15.5964 5.86951 16.1496 5.86951 16.8319C5.86951 17.5143 6.42266 18.0674 7.10501 18.0674Z" stroke="#0B6186" stroke-width="1.5" stroke-linecap="round" stroke-linejoin="round"/>
<path d="M12.2929 10.1616C12.6861 10.1616 13.0631 10.3178 13.3412 10.5958C13.6192 10.8739 13.7754 11.2509 13.7754 11.6441M12.4164 9.29712C13.0061 9.29712 13.5716 9.53138 13.9886 9.94837C14.4056 10.3654 14.6399 10.9309 14.6399 11.5206M2.81287 15.5971L7.42187 10.9876C7.6051 10.8036 7.82287 10.6575 8.0627 10.5579C8.30252 10.4582 8.55966 10.4069 8.81937 10.4069C9.07907 10.4069 9.33621 10.4582 9.57604 10.5579C9.81586 10.6575 10.0336 10.8036 10.2169 10.9876L13.0119 13.7826C13.196 13.9659 13.3421 14.1837 13.4418 14.4235C13.5415 14.6634 13.5928 14.9206 13.5928 15.1804C13.5928 15.4401 13.5415 15.6973 13.4418 15.9372C13.3421 16.1771 13.196 16.3949 13.0119 16.5781L8.34087 21.2501" stroke="#0B6186" stroke-width="1.5" stroke-linecap="round" stroke-linejoin="round"/>
<path d="M5.37538 13.0185V7.69101C5.37393 7.04174 5.50074 6.39858 5.74854 5.79846C5.99633 5.19833 6.36023 4.65307 6.81933 4.19396C7.27843 3.73486 7.8237 3.37096 8.42382 3.12317C9.02395 2.87537 9.66711 2.74856 10.3164 2.75001H16.2464C16.8956 2.74863 17.5387 2.87549 18.1388 3.12331C18.7388 3.37114 19.2841 3.73504 19.7431 4.19414C20.2022 4.65324 20.566 5.19848 20.8138 5.79857C21.0615 6.39867 21.1883 7.04179 21.1869 7.69101V13.6205C21.1883 14.2698 21.0615 14.9129 20.8137 15.5131C20.5659 16.1132 20.202 16.6585 19.7429 17.1176C19.2838 17.5767 18.7386 17.9406 18.1384 18.1884C17.5383 18.4361 16.8951 18.563 16.2459 18.5615H10.9534" stroke="#0B6186" stroke-width="1.5" stroke-linecap="round" stroke-linejoin="round"/>
<path d="M9.82251 13.3735L10.5215 14.072" stroke="#0B6186" stroke-width="0.915594" stroke-linecap="round" stroke-linejoin="round"/>
</svg>
