<svg width="24" height="24" viewBox="0 0 24 24" fill="none" xmlns="http://www.w3.org/2000/svg">
<g clip-path="url(#clip0_867_662)">
<path d="M11.9999 1.33325C9.89026 1.33325 7.82797 1.95884 6.07384 3.13091C4.31972 4.30298 2.95254 5.96888 2.14521 7.91796C1.33787 9.86704 1.12664 12.0118 1.53821 14.0809C1.94979 16.15 2.96569 18.0506 4.45745 19.5424C5.94921 21.0342 7.84983 22.0501 9.91896 22.4616C11.9881 22.8732 14.1328 22.662 16.0819 21.8546C18.031 21.0473 19.6969 19.6801 20.8689 17.926C22.041 16.1719 22.6666 14.1096 22.6666 11.9999C22.6666 9.17094 21.5428 6.45783 19.5424 4.45745C17.542 2.45706 14.8289 1.33325 11.9999 1.33325ZM11.9999 21.3333C10.154 21.3333 8.34946 20.7859 6.8146 19.7603C5.27974 18.7347 4.08347 17.2771 3.37705 15.5716C2.67063 13.8662 2.4858 11.9896 2.84593 10.1791C3.20606 8.36859 4.09497 6.70555 5.40026 5.40026C6.70555 4.09497 8.36859 3.20605 10.1791 2.84592C11.9896 2.48579 13.8662 2.67063 15.5716 3.37704C17.2771 4.08346 18.7347 5.27974 19.7603 6.8146C20.7859 8.34945 21.3333 10.154 21.3333 11.9999C21.3333 14.4753 20.3499 16.8492 18.5996 18.5996C16.8492 20.3499 14.4753 21.3333 11.9999 21.3333Z" fill="#0B6186"/>
<path d="M12.1933 5.94672C11.4709 5.93478 10.7547 6.0821 10.0956 6.37822C9.43653 6.67434 8.85078 7.11198 8.37996 7.66005C8.31455 7.72067 8.26197 7.79379 8.22532 7.8751C8.18868 7.9564 8.16872 8.04423 8.16663 8.13338C8.16658 8.21564 8.18308 8.29706 8.21515 8.37281C8.24722 8.44856 8.29419 8.51708 8.35328 8.5743C8.41237 8.63153 8.48236 8.67628 8.5591 8.7059C8.63584 8.73552 8.71775 8.7494 8.79996 8.74672C8.97608 8.74235 9.14448 8.67357 9.27329 8.55338C9.6296 8.13584 10.0721 7.80044 10.5705 7.57027C11.0688 7.3401 11.6111 7.22062 12.16 7.22005C13.7333 7.22005 14.7133 8.23338 14.7133 9.49338V9.52672C14.7133 11.0001 13.54 11.8201 11.6866 11.9601C11.6116 11.9629 11.538 11.9817 11.4707 12.015C11.4034 12.0483 11.3438 12.0954 11.296 12.1533C11.2482 12.2112 11.2131 12.2786 11.1931 12.351C11.1731 12.4233 11.1686 12.4991 11.18 12.5734C11.18 12.5734 11.18 14.1201 11.18 14.4067C11.1965 14.5717 11.274 14.7246 11.3973 14.8356C11.5206 14.9465 11.6808 15.0075 11.8466 15.0067H11.92C12.085 14.9901 12.2379 14.9126 12.3488 14.7894C12.4598 14.6661 12.5208 14.5059 12.52 14.3401V12.9667C14.52 12.6867 16.14 11.6334 16.14 9.44672V9.41338C16.12 7.41338 14.56 5.94672 12.1933 5.94672Z" fill="#0B6186"/>
<path d="M11.8534 18.3C12.3136 18.3 12.6867 17.9269 12.6867 17.4666C12.6867 17.0064 12.3136 16.6333 11.8534 16.6333C11.3931 16.6333 11.02 17.0064 11.02 17.4666C11.02 17.9269 11.3931 18.3 11.8534 18.3Z" fill="#0B6186"/>
</g>
<defs>
<clipPath id="clip0_867_662">
<rect width="24" height="24" fill="white"/>
</clipPath>
</defs>
</svg>
