<svg width="40" height="40" viewBox="0 0 40 40" fill="none" xmlns="http://www.w3.org/2000/svg">
<g clip-path="url(#clip0_946_137)">
<path d="M16.6667 8.33333C16.6667 7.44928 17.0179 6.60143 17.643 5.97631C18.2681 5.35119 19.1159 5 20 5C20.8841 5 21.7319 5.35119 22.357 5.97631C22.9821 6.60143 23.3333 7.44928 23.3333 8.33333C25.2474 9.23838 26.879 10.6472 28.0534 12.4088C29.2278 14.1705 29.9007 16.2185 30 18.3333V23.3333C30.1254 24.3695 30.4924 25.3618 31.0714 26.2302C31.6503 27.0987 32.4251 27.819 33.3333 28.3333H6.66667C7.5749 27.819 8.34969 27.0987 8.92865 26.2302C9.50761 25.3618 9.87458 24.3695 10 23.3333V18.3333C10.0993 16.2185 10.7722 14.1705 11.9466 12.4088C13.121 10.6472 14.7527 9.23838 16.6667 8.33333" stroke="#0B6186" stroke-width="1.5" stroke-linecap="round" stroke-linejoin="round"/>
<path d="M15 28.3333V29.9999C15 31.326 15.5268 32.5978 16.4645 33.5355C17.4021 34.4731 18.6739 34.9999 20 34.9999C21.3261 34.9999 22.5979 34.4731 23.5355 33.5355C24.4732 32.5978 25 31.326 25 29.9999V28.3333" stroke="#0B6186" stroke-width="1.5" stroke-linecap="round" stroke-linejoin="round"/>
</g>
<defs>
<clipPath id="clip0_946_137">
<rect width="40" height="40" fill="white"/>
</clipPath>
</defs>
</svg>
