<svg width="20" height="20" viewBox="0 0 20 20" fill="none" xmlns="http://www.w3.org/2000/svg">
<path d="M14.1666 7.49996V5.83329C14.1666 3.49996 12.3333 1.66663 9.99998 1.66663C7.66665 1.66663 5.83331 3.49996 5.83331 5.83329V7.49996C4.41665 7.49996 3.33331 8.58329 3.33331 9.99996V15.8333C3.33331 17.25 4.41665 18.3333 5.83331 18.3333H14.1666C15.5833 18.3333 16.6666 17.25 16.6666 15.8333V9.99996C16.6666 8.58329 15.5833 7.49996 14.1666 7.49996ZM7.49998 5.83329C7.49998 4.41663 8.58331 3.33329 9.99998 3.33329C11.4166 3.33329 12.5 4.41663 12.5 5.83329V7.49996H7.49998V5.83329ZM10.9166 12.9166L10.8333 13V14.1666C10.8333 14.6666 10.5 15 9.99998 15C9.49998 15 9.16665 14.6666 9.16665 14.1666V13C8.66665 12.5 8.58331 11.75 9.08331 11.25C9.58331 10.75 10.3333 10.6666 10.8333 11.1666C11.3333 11.5833 11.4166 12.4166 10.9166 12.9166Z" fill="#0B6186"/>
</svg>
